<mxfile host="Electron" agent="Mozilla/5.0 (Windows NT 10.0; Win64; x64) AppleWebKit/537.36 (KHTML, like Gecko) draw.io/26.2.2 Chrome/134.0.6998.178 Electron/35.1.2 Safari/537.36" version="26.2.2">
  <diagram name="Page-1" id="cWa77t7hv81KoL2-7zvA">
    <mxGraphModel dx="912" dy="678" grid="1" gridSize="10" guides="1" tooltips="1" connect="1" arrows="1" fold="1" page="1" pageScale="1" pageWidth="850" pageHeight="1100" math="0" shadow="0">
      <root>
        <mxCell id="0" />
        <mxCell id="1" parent="0" />
        <mxCell id="DYwbqaM6CPuiUBSOWy3D-25" style="edgeStyle=orthogonalEdgeStyle;rounded=0;orthogonalLoop=1;jettySize=auto;html=1;exitX=1;exitY=0.5;exitDx=0;exitDy=0;entryX=0;entryY=0.5;entryDx=0;entryDy=0;curved=1;" edge="1" parent="1" source="DYwbqaM6CPuiUBSOWy3D-8" target="DYwbqaM6CPuiUBSOWy3D-35">
          <mxGeometry relative="1" as="geometry">
            <mxPoint x="240" y="400" as="targetPoint" />
          </mxGeometry>
        </mxCell>
        <mxCell id="DYwbqaM6CPuiUBSOWy3D-26" style="edgeStyle=orthogonalEdgeStyle;rounded=0;orthogonalLoop=1;jettySize=auto;html=1;exitX=1;exitY=0.5;exitDx=0;exitDy=0;entryX=0;entryY=0.5;entryDx=0;entryDy=0;strokeColor=default;curved=1;" edge="1" parent="1" source="DYwbqaM6CPuiUBSOWy3D-8" target="DYwbqaM6CPuiUBSOWy3D-37">
          <mxGeometry relative="1" as="geometry">
            <mxPoint x="240" y="480" as="targetPoint" />
          </mxGeometry>
        </mxCell>
        <mxCell id="DYwbqaM6CPuiUBSOWy3D-8" value="&lt;font style=&quot;font-size: 28px;&quot;&gt;Start&lt;/font&gt;" style="rounded=1;whiteSpace=wrap;html=1;" vertex="1" parent="1">
          <mxGeometry x="20" y="410" width="120" height="60" as="geometry" />
        </mxCell>
        <mxCell id="DYwbqaM6CPuiUBSOWy3D-18" value="REJECT" style="ellipse;whiteSpace=wrap;html=1;aspect=fixed;" vertex="1" parent="1">
          <mxGeometry x="680" y="400" width="80" height="80" as="geometry" />
        </mxCell>
        <mxCell id="DYwbqaM6CPuiUBSOWy3D-27" value="Repeat of Same Numeral" style="edgeStyle=orthogonalEdgeStyle;shape=connector;curved=1;rounded=0;orthogonalLoop=1;jettySize=auto;html=1;exitX=1;exitY=0.5;exitDx=0;exitDy=0;entryX=0.5;entryY=0;entryDx=0;entryDy=0;strokeColor=default;align=center;verticalAlign=middle;fontFamily=Helvetica;fontSize=11;fontColor=default;labelBackgroundColor=default;endArrow=classic;" edge="1" parent="1" source="DYwbqaM6CPuiUBSOWy3D-35" target="DYwbqaM6CPuiUBSOWy3D-18">
          <mxGeometry relative="1" as="geometry">
            <mxPoint x="360" y="400" as="sourcePoint" />
          </mxGeometry>
        </mxCell>
        <mxCell id="DYwbqaM6CPuiUBSOWy3D-30" value="Next Numeral is greater" style="edgeStyle=orthogonalEdgeStyle;shape=connector;curved=1;rounded=0;orthogonalLoop=1;jettySize=auto;html=1;exitX=0.844;exitY=0.832;exitDx=0;exitDy=0;entryX=0;entryY=0;entryDx=0;entryDy=0;strokeColor=default;align=center;verticalAlign=middle;fontFamily=Helvetica;fontSize=11;fontColor=default;labelBackgroundColor=default;endArrow=classic;exitPerimeter=0;" edge="1" parent="1" source="DYwbqaM6CPuiUBSOWy3D-35" target="DYwbqaM6CPuiUBSOWy3D-18">
          <mxGeometry relative="1" as="geometry">
            <mxPoint x="360" y="415" as="sourcePoint" />
          </mxGeometry>
        </mxCell>
        <mxCell id="DYwbqaM6CPuiUBSOWy3D-29" value="Same Numeral Repeated more than 3 times" style="edgeStyle=orthogonalEdgeStyle;shape=connector;curved=1;rounded=0;orthogonalLoop=1;jettySize=auto;html=1;entryX=0.5;entryY=1;entryDx=0;entryDy=0;strokeColor=default;align=center;verticalAlign=middle;fontFamily=Helvetica;fontSize=11;fontColor=default;labelBackgroundColor=default;endArrow=classic;exitX=1;exitY=0.5;exitDx=0;exitDy=0;" edge="1" parent="1" source="DYwbqaM6CPuiUBSOWy3D-37" target="DYwbqaM6CPuiUBSOWy3D-18">
          <mxGeometry relative="1" as="geometry">
            <mxPoint x="360" y="480.0256410256411" as="sourcePoint" />
            <Array as="points">
              <mxPoint x="350" y="480" />
              <mxPoint x="540" y="480" />
              <mxPoint x="540" y="500" />
              <mxPoint x="720" y="500" />
            </Array>
          </mxGeometry>
        </mxCell>
        <mxCell id="DYwbqaM6CPuiUBSOWy3D-31" value="Next Numeral is more than two steps greater" style="edgeStyle=orthogonalEdgeStyle;shape=connector;curved=1;rounded=0;orthogonalLoop=1;jettySize=auto;html=1;exitX=1;exitY=0;exitDx=0;exitDy=0;entryX=0;entryY=1;entryDx=0;entryDy=0;strokeColor=default;align=center;verticalAlign=middle;fontFamily=Helvetica;fontSize=11;fontColor=default;labelBackgroundColor=default;endArrow=classic;" edge="1" parent="1" source="DYwbqaM6CPuiUBSOWy3D-37" target="DYwbqaM6CPuiUBSOWy3D-18">
          <mxGeometry relative="1" as="geometry">
            <mxPoint x="360" y="465" as="sourcePoint" />
          </mxGeometry>
        </mxCell>
        <mxCell id="DYwbqaM6CPuiUBSOWy3D-35" value="" style="ellipse;whiteSpace=wrap;html=1;aspect=fixed;fontFamily=Helvetica;fontSize=11;fontColor=default;labelBackgroundColor=default;" vertex="1" parent="1">
          <mxGeometry x="270" y="360" width="80" height="80" as="geometry" />
        </mxCell>
        <mxCell id="DYwbqaM6CPuiUBSOWy3D-36" value="V, L, D" style="ellipse;whiteSpace=wrap;html=1;aspect=fixed;fontFamily=Helvetica;fontSize=11;fontColor=default;labelBackgroundColor=default;" vertex="1" parent="1">
          <mxGeometry x="275" y="365" width="70" height="70" as="geometry" />
        </mxCell>
        <mxCell id="DYwbqaM6CPuiUBSOWy3D-37" value="" style="ellipse;whiteSpace=wrap;html=1;aspect=fixed;fontFamily=Helvetica;fontSize=11;fontColor=default;labelBackgroundColor=default;" vertex="1" parent="1">
          <mxGeometry x="270" y="450" width="80" height="80" as="geometry" />
        </mxCell>
        <mxCell id="DYwbqaM6CPuiUBSOWy3D-38" value="I, X, C, M" style="ellipse;whiteSpace=wrap;html=1;aspect=fixed;fontFamily=Helvetica;fontSize=11;fontColor=default;labelBackgroundColor=default;" vertex="1" parent="1">
          <mxGeometry x="275" y="455" width="70" height="70" as="geometry" />
        </mxCell>
      </root>
    </mxGraphModel>
  </diagram>
</mxfile>
